<?xml version="1.0" standalone="no"?>
<!DOCTYPE svg PUBLIC "-//W3C//DTD SVG 20010904//EN"
 "http://www.w3.org/TR/2001/REC-SVG-20010904/DTD/svg10.dtd">
<svg version="1.0" xmlns="http://www.w3.org/2000/svg"
 width="310.000000pt" height="310.000000pt" viewBox="0 0 310.000000 310.000000"
 preserveAspectRatio="xMidYMid meet">
<metadata>
Created by potrace 1.11, written by Peter Selinger 2001-2013
</metadata>
<g transform="translate(0.000000,310.000000) scale(0.100000,-0.100000)"
fill="#000000" stroke="none">
<path d="M0 2386 l0 -714 23 -15 c13 -8 34 -41 46 -74 32 -84 73 -143 151
-216 75 -71 160 -118 259 -143 76 -19 242 -15 306 7 l40 14 5 591 c5 564 6
593 24 613 18 20 29 21 188 21 l168 0 0 315 0 315 -605 0 -605 0 0 -714z"/>
<path d="M1372 2784 l3 -317 85 -17 c290 -59 558 -282 676 -562 56 -131 69
-203 69 -373 0 -162 -14 -243 -60 -358 l-25 -61 25 -35 c84 -121 192 -265 200
-267 6 -2 44 45 86 104 258 363 594 828 603 835 6 4 23 10 39 14 l27 6 0 673
0 674 -865 0 -865 0 2 -316z"/>
<path d="M977 2333 c-10 -10 -8 -1003 2 -1003 19 0 138 138 168 195 58 111 63
149 63 499 l0 316 -113 0 c-63 0 -117 -3 -120 -7z"/>
<path d="M1376 2322 c-3 -3 -6 -132 -6 -286 0 -155 -5 -312 -10 -350 -13 -88
-49 -192 -92 -263 -47 -78 -159 -196 -234 -245 l-64 -42 0 -219 0 -219 228 5
c188 3 236 7 282 23 l55 19 5 483 5 484 24 19 c27 22 60 25 83 7 9 -7 93 -121
188 -253 94 -132 177 -240 183 -240 42 0 65 324 33 456 -73 303 -314 543 -617
614 -32 7 -60 10 -63 7z"/>
<path d="M1680 1140 c0 -176 3 -320 6 -320 33 0 249 212 260 255 4 18 -21 60
-126 204 -72 100 -133 181 -136 181 -2 0 -4 -144 -4 -320z"/>
<path d="M2715 1068 c-154 -215 -293 -406 -309 -425 -28 -33 -74 -44 -102 -25
-6 4 -64 80 -128 169 -65 90 -122 166 -128 169 -5 3 -24 -11 -41 -32 -55 -70
-157 -161 -243 -215 l-83 -54 -1 -327 0 -328 665 0 665 0 0 730 c0 402 -3 730
-7 729 -5 0 -134 -176 -288 -391z"/>
<path d="M0 684 l0 -684 770 0 770 0 0 301 0 301 -27 -7 c-85 -23 -131 -27
-368 -32 -250 -5 -261 -5 -285 15 l-25 20 -3 242 c-3 221 -4 241 -20 236 -104
-32 -267 -30 -392 5 -129 35 -224 92 -327 195 l-93 92 0 -684z"/>
</g>
</svg>
